<?xml version="1.0" encoding="utf-8"?>
<!-- Generator: Adobe Illustrator 22.0.1, SVG Export Plug-In . SVG Version: 6.00 Build 0)  -->
<svg version="1.1" id="Layer_1" xmlns="http://www.w3.org/2000/svg" xmlns:xlink="http://www.w3.org/1999/xlink" x="0px" y="0px"
	 viewBox="0 0 1366 768" style="enable-background:new 0 0 1366 768;" xml:space="preserve">
<style type="text/css">
	.st0{fill:#C1272D;}
	.st1{fill:#FFFFFF;}
</style>
<circle class="st0" cx="683.5" cy="384.7" r="265.5"/>
<circle class="st1" cx="683.5" cy="384.7" r="237.3"/>
<path class="st0" d="M817.6,266.4c-7.4,0.4-37.9,1.1-74.3,3.8c1.9-6.6,3.8-13.2,5.4-19.8c2.1-8.6-8.6-31.9-20.2-28.9
	c-11.8,3.1-21.7,7.4-32.7,12.9c-8.9,4.5,5.8,29.5,17.2,30.6c-0.9,2.7-1.7,5.4-2.6,8.1c-62.1,6.4-126.5,19.5-120,46.7
	c2.7,11.6,9.9,19.6,19,25.3c-61.3,8.4-110.5,29.9-99.7,83c11.9,58.3,85.4,68.3,133.5,70.6c3.2,0.1,6.6,0.3,10.2,0.4
	c2.3,18.3,8.7,35.9,21.6,51.4c15.8,19.1,18.5-4.7,8-17.5c-6.7-8.1-9.2-20-9.1-33.5c52.3,0.4,124.5-5.1,155.7-38
	c9-9.4-13.6-37.7-21-29.9c-28,29.4-91.5,31.7-130.5,34.5c6.9-32.3,20.5-66.2,26.2-83.6c1.1-3.2,2.2-6.4,3.3-9.6
	c33.9-0.4,67.9,1.2,101.5-1.9c13.2-1.2-5.6-31.3-16.5-31.5c-24-0.5-48.1-1.3-72.1-2.7c3.7-10.2,7.5-20.4,11.1-30.6
	c34.1-4,68.4-6.3,102.6-8.3C846.3,297.2,829.5,265.7,817.6,266.4z M537.5,417c19.9-39.4,99.9-40.3,137.5-42.8
	c-3.8,11.5-7.4,23-10.5,34.6c-5.1,18.8-9.8,38.8-11.5,58.5C606,468.3,513.9,463.6,537.5,417z M688.7,334.5c-9.5-0.9-19-1.8-28.4-3
	c-10.7-1.3-21.2-3.4-31.7-5.7c18.5-8.9,44.2-10.8,62.2-13.9c2.1-0.4,4.2-0.6,6.2-0.9C694.3,318.8,691.5,326.6,688.7,334.5z"/>
</svg>
